HIERARCHY
ROOT Hips
{
 OFFSET 0.000000 0.000000 0.000000
 CHANNELS 6 Xposition Yposition Zposition Yrotation Xrotation Zrotation
 JOINT Chest
 {
  OFFSET 0.000000 9.585900 0.002600
  CHANNELS 3 Yrotation Xrotation Zrotation
  JOINT Chest2
  {
   OFFSET 0.000000 9.601200 -0.005300
   CHANNELS 3 Yrotation Xrotation Zrotation
   JOINT Chest3
   {
    OFFSET 0.000000 9.561800 0.000000
    CHANNELS 3 Yrotation Xrotation Zrotation
    JOINT Chest4
    {
     OFFSET 0.000000 9.552100 0.000000
     CHANNELS 3 Yrotation Xrotation Zrotation
     JOINT Neck
     {
      OFFSET 0.000000 14.453000 0.000000
      CHANNELS 3 Yrotation Xrotation Zrotation
      JOINT Head
      {
       OFFSET 0.000000 8.936500 -0.011300
       CHANNELS 3 Yrotation Xrotation Zrotation
       End Site
       {
        OFFSET 0.000000 17.073600 -0.006000
       }
      }
     }
     JOINT RightCollar
     {
      OFFSET -2.921100 9.558500 0.000000
      CHANNELS 3 Yrotation Xrotation Zrotation
      JOINT RightShoulder
      {
       OFFSET -13.519700 0.000000 0.000000
       CHANNELS 3 Yrotation Xrotation Zrotation
       JOINT RightElbow
       {
        OFFSET 0.000000 -29.696600 0.000000
        CHANNELS 3 Yrotation Xrotation Zrotation
        JOINT RightWrist
        {
         OFFSET 0.000000 -24.004700 0.000000
         CHANNELS 3 Yrotation Xrotation Zrotation
         End Site
         {
          OFFSET 0.000000 -17.728500 0.000000
         }
        }
       }
      }
     }
     JOINT LeftCollar
     {
      OFFSET 2.921100 9.558500 0.000000
      CHANNELS 3 Yrotation Xrotation Zrotation
      JOINT LeftShoulder
      {
       OFFSET 13.519700 0.000000 0.000000
       CHANNELS 3 Yrotation Xrotation Zrotation
       JOINT LeftElbow
       {
        OFFSET 0.000000 -29.696600 0.000000
        CHANNELS 3 Yrotation Xrotation Zrotation
        JOINT LeftWrist
        {
         OFFSET 0.000000 -24.004700 0.000000
         CHANNELS 3 Yrotation Xrotation Zrotation
         End Site
         {
          OFFSET 0.000000 -17.728500 0.000000
         }
        }
       }
      }
     }
    }
   }
  }
 }
 JOINT RightHip
 {
  OFFSET -7.771700 -0.012900 -0.001300
  CHANNELS 3 Yrotation Xrotation Zrotation
  JOINT RightKnee
  {
   OFFSET 0.000000 -40.869800 0.001200
   CHANNELS 3 Yrotation Xrotation Zrotation
   JOINT RightAnkle
   {
    OFFSET 0.000000 -39.717900 0.002100
    CHANNELS 3 Yrotation Xrotation Zrotation
    JOINT RightToe
    {
     OFFSET 0.000000 -4.965400 11.033500
     CHANNELS 3 Yrotation Xrotation Zrotation
     End Site
     {
      OFFSET 0.000000 -1.423100 5.872300
     }
    }
   }
  }
 }
 JOINT LeftHip
 {
  OFFSET 7.771700 -0.012900 -0.001300
  CHANNELS 3 Yrotation Xrotation Zrotation
  JOINT LeftKnee
  {
   OFFSET 0.000000 -40.869800 0.001200
   CHANNELS 3 Yrotation Xrotation Zrotation
   JOINT LeftAnkle
   {
    OFFSET 0.000000 -39.717900 0.002100
    CHANNELS 3 Yrotation Xrotation Zrotation
    JOINT LeftToe
    {
     OFFSET 0.000000 -4.965400 11.033500
     CHANNELS 3 Yrotation Xrotation Zrotation
     End Site
     {
      OFFSET 0.000000 -1.423100 5.872300
     }
    }
   }
  }
 }
}
MOTION
Frames: 16
Frame Time: 0.008333
-125.667263 46.559975 -42.497922 173.144910 -33.307485 -2.502948 0.675489 18.780285 1.604361 0.062670 2.180718 0.202944 0.086836 3.608656 0.319662 0.558547 16.312284 1.514443 -0.736280 17.449772 -1.651120 -0.849707 -3.357896 -2.786069 -0.147604 0.582839 -0.844982 9.037339 -7.009627 -17.148535 -38.743916 -53.254962 87.738444 -2.784674 -0.985733 -11.789108 -0.155073 0.394738 1.710422 -6.126110 -3.205945 12.401218 53.957749 -70.162548 -92.296714 -2.066950 9.499055 3.225769 -1.406147 -53.429725 -4.358132 -164.613347 77.424179 -154.924557 -8.913792 -14.735861 -5.605343 -0.021961 -0.125005 -0.018094 2.091421 -56.131083 13.092459 -115.170237 82.871034 -119.070955 3.600269 -6.020134 5.970561 0.084088 0.129045 0.020404
-125.662992 46.559175 -42.494915 173.132093 -33.304157 -2.517369 0.684000 18.779914 1.616783 0.046817 2.185559 0.188482 0.086327 3.608453 0.317005 0.582589 16.306236 1.528028 -0.760655 17.465937 -1.649933 -0.848808 -3.350744 -2.769391 -0.160390 0.577904 -0.859322 9.055826 -7.000124 -17.172802 -38.765903 -53.246326 87.749429 -2.792778 -0.994961 -11.777357 -0.167066 0.402837 1.698776 -6.148092 -3.213298 12.381370 53.938987 -70.178704 -92.261585 -2.071497 9.505775 3.230428 -1.396766 -53.433400 -4.315473 -164.535588 77.428719 -154.839908 -8.942880 -14.725745 -5.598135 0.007339 -0.123920 -0.008236 2.059215 -56.135909 13.123466 -115.236267 82.885153 -119.117207 3.599810 -6.022739 5.946316 0.089733 0.132810 0.023497
-125.658949 46.558133 -42.490757 173.113119 -33.294809 -2.527857 0.703434 18.770906 1.635476 0.036776 2.187463 0.180257 0.086017 3.608531 0.315874 0.580948 16.307317 1.521424 -0.771274 17.474364 -1.640880 -0.854488 -3.342417 -2.752815 -0.169535 0.572403 -0.867304 9.051888 -6.972896 -17.225331 -38.826907 -53.235838 87.832911 -2.800419 -1.004570 -11.766238 -0.171288 0.405625 1.692513 -6.168394 -3.217939 12.367659 53.938572 -70.186125 -92.251387 -2.075724 9.510982 3.239668 -1.396321 -53.448000 -4.275384 -164.519532 77.442276 -154.833666 -8.939926 -14.716799 -5.584506 -0.004578 -0.109695 -0.009408 2.017337 -56.144100 13.167677 -115.282894 82.899891 -119.167610 3.635145 -6.003928 5.948293 0.057061 0.111901 0.010563
-125.656875 46.558376 -42.488305 173.100531 -33.296480 -2.530718 0.704757 18.774868 1.630822 0.033606 2.187073 0.181382 0.085840 3.608361 0.314761 0.581475 16.310207 1.515344 -0.776795 17.477625 -1.631739 -0.866723 -3.335861 -2.736744 -0.173171 0.567557 -0.871857 9.066566 -6.970699 -17.220648 -38.813536 -53.239467 87.805075 -2.802351 -1.014611 -11.762255 -0.198835 0.414895 1.670109 -6.155907 -3.227847 12.371725 53.987450 -70.187086 -92.324012 -2.082897 9.532120 3.267616 -1.392090 -53.447873 -4.258253 -164.499141 77.445347 -154.813891 -8.935800 -14.706244 -5.582180 -0.016588 -0.112832 -0.007878 2.002014 -56.141110 13.189355 -115.292280 82.905262 -119.170923 3.633130 -6.003437 5.939927 0.059713 0.112658 0.009584
-125.654877 46.558351 -42.485004 173.073516 -33.292832 -2.528897 0.696525 18.775642 1.615602 0.049406 2.184663 0.189128 0.085649 3.608120 0.313683 0.582755 16.308679 1.509690 -0.760920 17.478997 -1.622222 -0.879430 -3.331583 -2.727949 -0.160564 0.567499 -0.867540 9.049310 -6.954348 -17.254385 -38.839405 -53.236562 87.839719 -2.801731 -1.024069 -11.761406 -0.214576 0.427293 1.658405 -6.149874 -3.238404 12.371198 53.997360 -70.191176 -92.336417 -2.088426 9.541253 3.282792 -1.380257 -53.454255 -4.235241 -164.483261 77.449970 -154.797013 -8.942447 -14.699066 -5.574722 -0.019547 -0.112812 -0.010673 2.001257 -56.145117 13.212953 -115.283908 82.909525 -119.152273 3.629457 -5.998812 5.926476 0.064398 0.111309 0.011749
-125.654956 46.558500 -42.482232 173.063496 -33.289503 -2.527344 0.688672 18.775373 1.603875 0.049095 2.184533 0.188576 0.093633 3.606506 0.318482 0.546074 16.312074 1.485497 -0.739689 17.479026 -1.608421 -0.871068 -3.331728 -2.724862 -0.140320 0.561786 -0.871107 9.046717 -6.943128 -17.266964 -38.863179 -53.232195 87.884455 -2.799789 -1.032113 -11.771561 -0.183325 0.429592 1.666764 -6.157532 -3.243627 12.358457 54.011651 -70.194727 -92.360216 -2.102914 9.545332 3.267409 -1.363464 -53.459798 -4.234070 -164.487314 77.455994 -154.799945 -8.954800 -14.688993 -5.561385 -0.014672 -0.114816 -0.015556 1.977643 -56.144426 13.233469 -115.249572 82.916018 -119.117826 3.628502 -5.993386 5.909640 0.073371 0.111217 0.017553
-125.657304 46.558663 -42.480103 173.057083 -33.286853 -2.517308 0.677908 18.775314 1.581653 0.048629 2.184374 0.188067 0.098745 3.606019 0.323603 0.534543 16.312249 1.475586 -0.774218 17.480749 -1.610570 -0.851557 -3.334727 -2.720404 -0.150358 0.557063 -0.880537 9.012950 -6.922442 -17.293425 -38.892230 -53.230724 87.972349 -2.800282 -1.037240 -11.765422 -0.176257 0.434372 1.668881 -6.169438 -3.248558 12.349558 54.008108 -70.203091 -92.337108 -2.113016 9.538042 3.228562 -1.340022 -53.463757 -4.246068 -164.493272 77.461907 -154.811712 -8.955211 -14.685334 -5.553227 -0.015780 -0.111747 -0.015457 1.950858 -56.136429 13.237945 -115.225734 82.932277 -119.111022 3.652419 -5.996744 5.902829 0.062131 0.115043 0.016786
-125.657803 46.558562 -42.477613 173.045045 -33.281876 -2.518128 0.679272 18.770049 1.575439 0.053243 2.185103 0.192742 0.077198 3.607250 0.306197 0.545294 16.311297 1.482381 -0.762677 17.481037 -1.604931 -0.891806 -3.332066 -2.707733 -0.199200 0.556718 -0.901805 9.040783 -6.916381 -17.286454 -38.888755 -53.232359 87.992316 -2.801310 -1.051502 -11.748955 -0.182471 0.447978 1.662555 -6.180154 -3.258441 12.350693 54.034479 -70.206294 -92.359563 -2.115440 9.542709 3.239243 -1.333520 -53.470358 -4.231703 -164.448857 77.465174 -154.776000 -8.935849 -14.676370 -5.560323 -0.026033 -0.110618 -0.004302 1.939489 -56.139397 13.249341 -115.214516 82.936501 -119.092334 3.654620 -5.996441 5.889295 0.055587 0.117022 0.020332
-125.661079 46.558266 -42.476067 173.038274 -33.278350 -2.506249 0.674677 18.764986 1.557486 0.054823 2.186743 0.193674 0.068297 3.605771 0.301610 0.533275 16.313117 1.476954 -0.745520 17.482234 -1.601444 -0.894937 -3.330482 -2.705019 -0.207579 0.557243 -0.909562 9.036435 -6.909277 -17.291817 -38.872800 -53.237636 87.957472 -2.803401 -1.066911 -11.706802 -0.222517 0.477375 1.647456 -6.180999 -3.276143 12.343408 54.054682 -70.219966 -92.375926 -2.113994 9.552506 3.300810 -1.320772 -53.478793 -4.239150 -164.434976 77.462928 -154.768454 -8.936941 -14.647463 -5.559325 -0.025874 -0.137003 -0.002858 1.942167 -56.142139 13.232573 -115.233628 82.942870 -119.094851 3.621715 -6.009782 5.857181 0.091147 0.136978 0.033487
-125.662539 46.558627 -42.475920 173.055066 -33.283528 -2.517556 0.659288 18.770032 1.556997 0.032352 2.181314 0.177107 0.076929 3.608865 0.309063 0.516670 16.314269 1.469684 -0.738871 17.488004 -1.601452 -0.894736 -3.326223 -2.705747 -0.210875 0.560631 -0.917326 9.033154 -6.903836 -17.297170 -38.873857 -53.237156 87.965386 -2.803690 -1.072814 -11.695675 -0.204623 0.487177 1.650483 -6.193475 -3.278157 12.334446 54.064367 -70.221992 -92.406661 -2.114663 9.553281 3.325721 -1.340254 -53.474811 -4.231564 -164.444994 77.462279 -154.784394 -8.942287 -14.639689 -5.557325 -0.024625 -0.145261 -0.001355 1.899846 -56.134697 13.243066 -115.267593 82.955728 -119.132275 3.632602 -6.004748 5.848424 0.087561 0.133784 0.031686
-125.664284 46.558425 -42.475738 173.064506 -33.286368 -2.522857 0.638689 18.769766 1.543038 0.030117 2.179622 0.177764 0.078628 3.610947 0.310179 0.492240 16.310996 1.458890 -0.759358 17.497153 -1.606756 -0.860750 -3.319532 -2.708061 -0.202290 0.569445 -0.920074 9.050999 -6.904873 -17.292854 -38.872333 -53.230515 87.926691 -2.802318 -1.081065 -11.717333 -0.183329 0.502008 1.655152 -6.221515 -3.276018 12.317984 54.066975 -70.231166 -92.403296 -2.125341 9.559696 3.300367 -1.349285 -53.472910 -4.224803 -164.446349 77.461896 -154.789341 -8.963813 -14.640123 -5.556025 -0.012453 -0.147210 0.002710 1.863127 -56.128796 13.253465 -115.300695 82.967201 -119.170457 3.640227 -6.002200 5.837589 0.086185 0.131906 0.030906
-125.665031 46.558023 -42.475709 173.066943 -33.289808 -2.529490 0.611012 18.761964 1.523734 0.044158 2.185693 0.186869 0.071175 3.608268 0.307185 0.476964 16.309485 1.451964 -0.730881 17.508246 -1.603822 -0.876701 -3.304829 -2.708453 -0.176187 0.581006 -0.917891 9.019573 -6.897919 -17.308854 -38.876099 -53.226459 87.957986 -2.810702 -1.081710 -11.732087 -0.181751 0.522030 1.657652 -6.245831 -3.271809 12.299135 54.069800 -70.242760 -92.382972 -2.129860 9.570980 3.298761 -1.357198 -53.468174 -4.214439 -164.442261 77.463918 -154.785367 -8.969973 -14.641947 -5.559922 -0.012859 -0.147591 0.002967 1.837805 -56.123888 13.268782 -115.323898 82.972937 -119.193122 3.635838 -5.999882 5.830462 0.085567 0.131415 0.030912
-125.661947 46.558035 -42.476107 173.073054 -33.298725 -2.560050 0.598122 18.764862 1.540421 0.042805 2.185055 0.186335 0.063399 3.604615 0.303722 0.472034 16.310582 1.448986 -0.731438 17.515302 -1.607474 -0.875338 -3.269758 -2.716222 -0.176317 0.595812 -0.921584 9.008454 -6.894303 -17.317962 -38.874252 -53.225261 87.985511 -2.821061 -1.082461 -11.747701 -0.211432 0.536401 1.651453 -6.234123 -3.265259 12.294785 54.068542 -70.245246 -92.366774 -2.131997 9.580065 3.309300 -1.408879 -53.457613 -4.155940 -164.401019 77.464148 -154.750867 -8.968937 -14.662840 -5.563330 -0.002546 -0.126889 0.003339 1.778697 -56.114463 13.324607 -115.337571 82.976601 -119.211421 3.661796 -5.977973 5.840215 0.060337 0.108637 0.017304
-125.661918 46.557192 -42.476168 173.062540 -33.301739 -2.563473 0.592828 18.762863 1.540778 0.037440 2.183038 0.183840 0.065663 3.605672 0.304602 0.462165 16.309777 1.443791 -0.727126 17.522914 -1.612844 -0.869349 -3.240211 -2.723927 -0.176928 0.603228 -0.928633 8.991242 -6.891836 -17.321095 -38.852841 -53.204823 87.954812 -2.816456 -1.088048 -11.722716 -0.214336 0.547733 1.646658 -6.250622 -3.262192 12.290130 54.054939 -70.246049 -92.340533 -2.128787 9.591156 3.316731 -1.416113 -53.454713 -4.138789 -164.388336 77.465837 -154.741219 -8.951586 -14.661512 -5.576010 -0.022184 -0.125500 0.009065 1.758582 -56.110309 13.347699 -115.369785 82.984863 -119.246950 3.667146 -5.977039 5.837128 0.049851 0.108269 0.015956
-125.663955 46.555501 -42.475644 173.063441 -33.297435 -2.561718 0.579616 18.755545 1.532409 0.039901 2.184021 0.184448 0.056725 3.602958 0.302034 0.452598 16.309931 1.439784 -0.748410 17.538890 -1.619817 -0.837702 -3.224164 -2.736522 -0.182486 0.615896 -0.931906 8.977192 -6.890093 -17.325571 -38.847929 -53.201060 87.964815 -2.821209 -1.089257 -11.731514 -0.195861 0.554390 1.644814 -6.277175 -3.258818 12.284125 54.031333 -70.248548 -92.320608 -2.125149 9.604319 3.320433 -1.418936 -53.459771 -4.138831 -164.377184 77.467489 -154.733596 -8.956465 -14.664299 -5.582038 -0.020908 -0.120897 0.015501 1.753791 -56.115464 13.341927 -115.374330 82.990598 -119.252038 3.676584 -5.969160 5.835407 0.050747 0.105410 0.015401
-125.664567 46.554459 -42.476131 173.063451 -33.301479 -2.568089 0.568373 18.753351 1.530599 0.046011 2.188381 0.186776 0.047695 3.598820 0.299423 0.444415 16.310483 1.437390 -0.740505 17.549833 -1.623296 -0.835149 -3.200735 -2.744036 -0.186371 0.627319 -0.932343 8.921869 -6.873195 -17.331892 -38.832035 -53.215950 88.009555 -2.827687 -1.095425 -11.745815 -0.200647 0.558334 1.638273 -6.260117 -3.253368 12.286299 54.012320 -70.250204 -92.320555 -2.123660 9.606824 3.335922 -1.430633 -53.455356 -4.128915 -164.387809 77.469808 -154.748852 -8.941468 -14.662068 -5.581998 -0.024569 -0.122219 0.009336 1.742018 -56.114021 13.352607 -115.420310 82.994611 -119.295687 3.676100 -5.967112 5.833089 0.053498 0.104248 0.016235
